<svg width="178" height="22" viewBox="0 0 178 22" fill="none" xmlns="http://www.w3.org/2000/svg">
<path d="M0 22V0.759999H1.08V22H0ZM4.32 22V0.759999H5.4V22H4.32ZM8.64 22V0.759999H10.8V22H8.64ZM11.8828 22V0.759999H12.9628V22H11.8828ZM17.2828 22V0.759999H19.4428V22H17.2828ZM20.5228 22V0.759999H21.6028V22H20.5228ZM23.7656 22V0.759999H24.8456V22H23.7656ZM27.0056 22V0.759999H31.3256V22H27.0056ZM32.4056 22V0.759999H33.4856V22H32.4056ZM35.6484 22V0.759999H36.7284V22H35.6484ZM41.0484 22V0.759999H43.2084V22H41.0484ZM44.2884 22V0.759999H45.3684V22H44.2884ZM47.5312 22V0.759999H49.6913V22H47.5312ZM50.7713 22V0.759999H55.0913V22H50.7713ZM56.1713 22V0.759999H58.3313V22H56.1713ZM59.4141 22V0.759999H60.4941V22H59.4141ZM61.5741 22V0.759999H63.7341V22H61.5741ZM65.8941 22V0.759999H66.9741V22H65.8941ZM71.2969 22V0.759999H73.4569V22H71.2969ZM77.7769 22V0.759999H78.8569V22H77.7769ZM79.9369 22V0.759999H81.0169V22H79.9369ZM83.1797 22V0.759999H85.3397V22H83.1797ZM86.4197 22V0.759999H88.5797V22H86.4197ZM90.7397 22V0.759999H92.8997V22H90.7397ZM95.0625 22V0.759999H96.1425V22H95.0625ZM98.3025 22V0.759999H101.543V22H98.3025ZM103.703 22V0.759999H105.863V22H103.703ZM106.945 22V0.759999H109.105V22H106.945ZM110.185 22V0.759999H113.425V22H110.185ZM115.585 22V0.759999H116.665V22H115.585ZM118.828 22V0.759999H120.988V22H118.828ZM123.148 22V0.759999H126.388V22H123.148ZM127.468 22V0.759999H128.548V22H127.468ZM130.711 22V0.759999H133.951V22H130.711ZM136.111 22V0.759999H137.191V22H136.111ZM138.271 22V0.759999H140.431V22H138.271ZM142.594 22V0.759999H145.834V22H142.594ZM147.994 22V0.759999H149.074V22H147.994ZM150.154 22V0.759999H152.314V22H150.154ZM154.477 22V0.759999H157.717V22H154.477ZM158.797 22V0.759999H159.877V22H158.797ZM162.037 22V0.759999H164.197V22H162.037ZM166.359 22V0.759999H169.599V22H166.359ZM170.679 22V0.759999H172.839V22H170.679ZM173.919 22V0.759999H177.159V22H173.919Z" fill="white"/>
</svg>
